<svg width="32" height="32" viewBox="0 0 32 32" fill="none" xmlns="http://www.w3.org/2000/svg">
<path d="M12 14C12 12.8956 11.1044 12 10 12H8C5.79063 12 4 13.7906 4 16V19.9775C4 22.1869 5.79063 23.9775 8 23.9775H10C11.1044 23.9775 12 23.0819 12 21.9775V14ZM10 21.9775H8C6.8975 21.9775 6 21.08 6 19.9775V16C6 14.8975 6.8975 14 8 14H10V21.9775ZM24 23.9775C26.2094 23.9775 28 22.1869 28 19.9775V16C28 13.7906 26.2094 12 24 12H22C20.8956 12 20 12.8956 20 14V21.9775C20 23.0819 20.8956 23.9775 22 23.9775H24ZM22 14H24C25.1025 14 26 14.8975 26 16V19.9775C26 21.08 25.1025 21.9775 24 21.9775H22V14ZM16 0C7.12313 0 0.245 7.36375 0.00625 16L0 17.5C0 17.7763 0.22375 18 0.5 18H1.5C1.77625 18 2 17.7763 2 17.5L2.00563 16C2.21438 8.44938 8.22688 2 16 2C23.7188 2 30 8.28 30 16V27C30 28.6544 28.6544 30 27 30H21.8162C21.9281 29.6856 22 29.3525 22 29C22 27.3431 20.6569 26 19 26H15C13.3431 26 12 27.3431 12 29C12 30.6569 13.3431 32 15 32H27C29.7575 32 32 29.7569 32 27V16C32 7.17813 24.8225 0 16 0ZM19 30H15C14.4487 30 14 29.5513 14 29C14 28.4487 14.4487 28 15 28H19C19.5513 28 20 28.4487 20 29C20 29.5513 19.5513 30 19 30Z" fill="#0043CB"/>
</svg>
