<svg width="32" height="32" viewBox="0 0 32 32" fill="none" xmlns="http://www.w3.org/2000/svg">
<path d="M16 0C7.16129 0 0 7.16129 0 16C0 24.8387 7.16129 32 16 32C24.8387 32 32 24.8387 32 16C32 7.16129 24.8387 0 16 0ZM29.9355 16C29.9355 23.6581 23.7355 29.9355 16 29.9355C8.34194 29.9355 2.06452 23.7355 2.06452 16C2.06452 8.34194 8.26452 2.06452 16 2.06452C23.6581 2.06452 29.9355 8.26452 29.9355 16ZM20.329 21.6968L15.0903 17.8903C14.8903 17.7419 14.7742 17.5097 14.7742 17.2645V6.96774C14.7742 6.54194 15.1226 6.19355 15.5484 6.19355H16.4516C16.8774 6.19355 17.2258 6.54194 17.2258 6.96774V16.4065L21.7742 19.7161C22.1226 19.9677 22.1935 20.4516 21.9419 20.8L21.4129 21.529C21.1613 21.871 20.6774 21.9484 20.329 21.6968Z" fill="#0043CB"/>
</svg>
