<svg width="40" height="32" viewBox="0 0 40 32" fill="none" xmlns="http://www.w3.org/2000/svg">
<path d="M33.6498 12.2761L33.4936 12.0324C33.2375 12.0512 32.9876 12.0512 32.7315 12.0324L32.5753 12.2823C32.2129 12.8571 31.507 13.1194 30.8573 12.9133C29.9951 12.6447 29.4204 12.3635 28.7144 11.7825C28.1522 11.3202 28.0147 10.5143 28.3771 9.88333L28.5332 9.61469C28.3896 9.40228 28.2646 9.18362 28.1522 8.95247H27.5836C26.859 8.95247 26.2467 8.44019 26.1093 7.72799C25.9468 6.8721 25.9406 6.21613 26.1155 5.32276C26.2467 4.61681 26.8715 4.10453 27.5899 4.10453H28.1522C28.2646 3.87338 28.3896 3.65472 28.5332 3.44231L28.3708 3.16118C28.0085 2.53645 28.1459 1.74303 28.6957 1.26824C29.3579 0.699728 29.9264 0.374866 30.7885 0.081241C31.4632 -0.149911 32.2067 0.124972 32.569 0.74346L32.7315 1.01834C32.9876 0.999601 33.2375 0.999601 33.4936 1.01834L33.6561 0.74346C34.0184 0.124972 34.7618 -0.149911 35.4428 0.0874884C36.2737 0.368619 36.836 0.687233 37.5357 1.28073C38.0854 1.74928 38.2166 2.5427 37.8543 3.16743L37.6919 3.44231C37.8355 3.65472 37.9605 3.87338 38.0729 4.10453H38.3916C39.1162 4.10453 39.7285 4.61681 39.8659 5.32901C40.0284 6.1849 40.0346 6.84087 39.8597 7.73424C39.7285 8.44019 39.1038 8.95247 38.3853 8.95247H38.0729C37.9605 9.18362 37.8355 9.40228 37.6919 9.61469L37.848 9.88333C38.2166 10.5206 38.0667 11.3265 37.5044 11.7888C36.836 12.3385 36.2612 12.6259 35.3803 12.907C34.7244 13.1132 34.0122 12.8571 33.6498 12.2761ZM34.412 10.1207L35.0742 11.264C35.4928 11.0891 35.8801 10.8642 36.2425 10.5893L35.5802 9.44601L35.9801 8.97746C36.28 8.62136 36.5174 8.22153 36.6673 7.78422L36.8735 7.20321H38.1916C38.2479 6.75965 38.2479 6.3036 38.1916 5.86003H36.8735L36.6673 5.27903C36.5111 4.84172 36.28 4.44189 35.9801 4.08579L35.5802 3.61724L36.2362 2.46773C35.8801 2.19284 35.4865 1.96794 35.068 1.79301L34.4058 2.93628L33.7998 2.82383C33.3437 2.73636 32.8751 2.73636 32.4191 2.82383L31.8131 2.93628L31.1509 1.79301C30.7386 1.96169 30.345 2.19284 29.9889 2.46773L30.6511 3.61099L30.2513 4.07954C29.9514 4.43564 29.714 4.83547 29.5641 5.27279L29.3579 5.85379H28.0397C27.9835 6.29735 27.9835 6.75341 28.0397 7.19697H29.3579L29.5641 7.77797C29.7202 8.21528 29.9514 8.61511 30.2513 8.97121L30.6511 9.43976L29.9889 10.5893C30.345 10.8642 30.7386 11.0891 31.1571 11.264L31.8193 10.1207L32.4253 10.2332C32.8814 10.3206 33.3499 10.3206 33.806 10.2332L34.412 10.1207ZM9.07901 28.3942V26.42C8.27311 26.0764 7.51093 25.6329 6.80498 25.1019L5.08696 26.0952C4.47472 26.445 3.7063 26.3263 3.2315 25.8078C1.71964 24.1648 0.826272 22.7154 0.0703436 20.3039C-0.142066 19.6354 0.139064 18.9107 0.745057 18.5546L2.45058 17.5613C2.34438 16.6867 2.34438 15.8058 2.45058 14.9312L0.745057 13.9441C0.139064 13.5942 -0.142066 12.8633 0.0703436 12.1948C0.826272 9.79586 1.70715 8.34648 3.2315 6.69093C3.7063 6.1724 4.48097 6.0537 5.08696 6.40355L6.79873 7.39688C7.50468 6.86586 8.26686 6.42854 9.07277 6.07869V4.10453C9.07277 3.39858 9.56006 2.79259 10.2473 2.64265C12.4151 2.15536 14.1206 2.09913 16.6008 2.64265C17.288 2.79259 17.7816 3.40483 17.7816 4.10453V6.07869C18.5875 6.4223 19.3496 6.86586 20.0556 7.39063L21.7674 6.40355C22.3796 6.0537 23.1543 6.1724 23.6291 6.69093C25.3096 8.54015 26.2217 10.1832 26.8839 12.2198C27.0964 12.8758 26.834 13.588 26.2467 13.9503L24.6849 14.9374C24.7911 15.8121 24.7911 16.6929 24.6849 17.5676L26.4404 18.6608C26.9777 18.9982 27.2525 19.6354 27.1151 20.2539C26.684 22.2093 25.0535 24.2897 23.6228 25.8265C23.148 26.3388 22.3796 26.4513 21.7736 26.1014L20.0556 25.1081C19.3496 25.6391 18.5875 26.0764 17.7816 26.4263V28.4005C17.7816 29.1002 17.2943 29.7124 16.6071 29.8623C14.2643 30.3809 12.5525 30.3746 10.241 29.8623C9.56631 29.7062 9.07901 29.0939 9.07901 28.3942ZM11.0782 28.0069C12.6275 28.3192 14.2331 28.3192 15.7824 28.0069V25.0269L16.4509 24.7895C17.5004 24.4209 18.4688 23.8586 19.3184 23.1339L19.8557 22.6716L22.4421 24.1648C23.4916 22.9715 24.5662 21.5846 25.0722 20.0915L22.4858 18.5984L22.617 17.9049C22.8169 16.8054 22.8169 15.6871 22.617 14.5876L22.4858 13.8941L25.0722 12.401C24.5662 10.9079 23.4916 9.51473 22.4421 8.32774L19.8557 9.82085L19.3184 9.35855C18.4688 8.62761 17.5067 8.0716 16.4509 7.703L15.7824 7.4656V4.49187C14.2331 4.1795 12.6275 4.1795 11.0782 4.49187V7.47185L10.4097 7.70925C9.36014 8.07784 8.39181 8.6401 7.54217 9.3648L7.0049 9.8271L4.4185 8.33398C3.37246 9.52312 2.57201 10.9075 2.06325 12.4073L4.64965 13.9004L4.51845 14.5938C4.31854 15.6934 4.31854 16.8116 4.51845 17.9112L4.64965 18.6046L2.06325 20.0977C2.56928 21.5909 3.36894 22.984 4.4185 24.171L7.0049 22.6779L7.54217 23.1402C8.39181 23.8711 9.3539 24.4271 10.4097 24.7957L11.0782 25.0331V28.0069ZM13.4771 21.4284C10.6221 21.4284 8.2981 19.1044 8.2981 16.2494C8.2981 13.3943 10.6221 11.0703 13.4771 11.0703C16.3322 11.0703 18.6562 13.3943 18.6562 16.2494C18.6562 19.1044 16.3322 21.4284 13.4771 21.4284ZM13.4771 13.0695C11.7279 13.0695 10.2972 14.4939 10.2972 16.2494C10.2972 18.0049 11.7216 19.4293 13.4771 19.4293C15.2264 19.4293 16.657 18.0049 16.657 16.2494C16.657 14.4939 15.2326 13.0695 13.4771 13.0695ZM33.6498 31.293L33.4936 31.0493C33.2375 31.0681 32.9876 31.0681 32.7315 31.0493L32.5753 31.2992C32.2129 31.874 31.507 32.1364 30.8573 31.9302C29.9951 31.6616 29.4204 31.3804 28.7144 30.7994C28.1522 30.3371 28.0147 29.5312 28.3771 28.9002L28.5332 28.6316C28.3896 28.4192 28.2646 28.2005 28.1522 27.9694H27.5836C26.859 27.9694 26.2467 27.4571 26.1093 26.7449C25.9468 25.889 25.9406 25.2331 26.1155 24.3397C26.2467 23.6337 26.8715 23.1214 27.5899 23.1214H28.1522C28.2646 22.8903 28.3896 22.6716 28.5332 22.4592L28.3708 22.1781C28.0085 21.5534 28.1459 20.76 28.6957 20.2852C29.3579 19.7166 29.9264 19.3918 30.7885 19.0982C31.4632 18.867 32.2067 19.1419 32.569 19.7604L32.7315 20.0353C32.9876 20.0165 33.2375 20.0165 33.4936 20.0353L33.6561 19.7604C34.0184 19.1419 34.7618 18.867 35.4428 19.1044C36.2737 19.3855 36.836 19.7041 37.5357 20.2976C38.0854 20.7662 38.2166 21.5596 37.8543 22.1843L37.6919 22.4592C37.8355 22.6716 37.9605 22.8903 38.0729 23.1214H38.3916C39.1162 23.1214 39.7285 23.6337 39.8659 24.3459C40.0284 25.2018 40.0346 25.8578 39.8597 26.7512C39.7285 27.4571 39.1038 27.9694 38.3853 27.9694H38.0729C37.9605 28.2005 37.8355 28.4192 37.6919 28.6316L37.848 28.9002C38.2166 29.5375 38.0667 30.3434 37.5044 30.8057C36.836 31.3554 36.2612 31.6428 35.3803 31.924C34.7244 32.1239 34.0122 31.8677 33.6498 31.293ZM34.412 29.1314L35.0742 30.2747C35.4928 30.0997 35.8801 29.8748 36.2425 29.5999L35.5802 28.4567L35.9801 27.9881C36.28 27.632 36.5174 27.2322 36.6673 26.7949L36.8735 26.2139H38.1916C38.2479 25.7703 38.2479 25.3143 38.1916 24.8707H36.8735L36.6673 24.2897C36.5111 23.8524 36.28 23.4526 35.9801 23.0965L35.5802 22.6279L36.2425 21.4846C35.8864 21.2098 35.4928 20.9849 35.0742 20.8099L34.412 21.9532L33.806 21.8407C33.3499 21.7533 32.8814 21.7533 32.4253 21.8407L31.8193 21.9532L31.1571 20.8099C30.7386 20.9849 30.3512 21.2098 29.9889 21.4846L30.6511 22.6279L30.2513 23.0965C29.9514 23.4526 29.714 23.8524 29.5641 24.2897L29.3579 24.8707H28.0397C27.9835 25.3143 27.9835 25.7703 28.0397 26.2139H29.3579L29.5641 26.7949C29.7202 27.2322 29.9514 27.632 30.2513 27.9881L30.6511 28.4567L29.9889 29.5999C30.345 29.8748 30.7386 30.0997 31.1571 30.2747L31.8193 29.1314L32.4253 29.2438C32.8814 29.3313 33.3499 29.3313 33.806 29.2438L34.412 29.1314ZM34.9868 25.4954C34.9868 24.3897 34.0934 23.4963 32.9876 23.4963C31.8818 23.4963 30.9884 24.3897 30.9884 25.4954C30.9884 26.6012 31.8818 27.4946 32.9876 27.4946C34.0934 27.4946 34.9868 26.6012 34.9868 25.4954ZM34.9868 6.48477C34.9868 5.37899 34.0934 4.48562 32.9876 4.48562C31.8818 4.48562 30.9884 5.37899 30.9884 6.48477C30.9884 7.59055 31.8818 8.48392 32.9876 8.48392C34.0934 8.48392 34.9868 7.5843 34.9868 6.48477Z" fill="#0043CB"/>
</svg>
